# xmcd CD database file
#
# Track frame offsets:
#	150
#	17772
#	37222
#	51917
#	70125
#	84600
#	103905
#	117830
#	125825
#	142485
#	157630
#
# Disc length: 2296 seconds
#
# Revision: 1
# Processed by: cddbd v1.5.2PL0 Copyright (c) Steve Scherf et al.
# Submitted via: CDex 1.51
#
DISCID=a108f60b
DTITLE=Luther Wright and the Wrongs - Hurtin' for Certain
DYEAR=1997
DGENRE=Country
TTITLE0=Ham and Bacon
TTITLE1=Hurtin' for Certain
TTITLE2=Karaoke Bingo
TTITLE3=Orlando Bound
TTITLE4=A Stone
TTITLE5=Bells of Oaxaca
TTITLE6=Empty Eyes
TTITLE7=The Sorrow Boogie
TTITLE8=Northern
TTITLE9=Time to Go
TTITLE10=Luther's Got The Blues
EXTD=YEAR: 1997
EXTT0=
EXTT1=
EXTT2=
EXTT3=
EXTT4=
EXTT5=
EXTT6=
EXTT7=
EXTT8=
EXTT9=
EXTT10=
PLAYORDER=
